<svg width="50" height="50" viewBox="0 0 50 50" fill="none" xmlns="http://www.w3.org/2000/svg">
<g id="029-2" clip-path="url(#clip0_116_24855)">
<g id="Group">
<g id="Group_2">
<path id="Vector" d="M25 50C38.8071 50 50 38.8071 50 25C50 11.1929 38.8071 0 25 0C11.1929 0 0 11.1929 0 25C0 38.8071 11.1929 50 25 50Z" fill="#424242"/>
</g>
<path id="Vector_2" d="M27.6946 49.8551C38.4402 48.7034 47.1473 40.744 49.4192 30.3745L33.2994 14.2546C33.2994 14.2546 20.1113 13.8901 15.3477 21.7251L22.3675 28.7627L16.1164 38.3495L27.6946 49.8551Z" fill="#232323"/>
<g id="Group_3">
<path id="Vector_3" d="M35.3985 38.3493H16.1163V31.8406L28.4999 22.4653C30.0702 21.2765 29.6918 19.6187 29.5385 19.139C29.3907 18.6769 28.7618 17.1644 26.8719 17.1092C26.8298 17.108 26.7557 17.1073 26.726 17.1071H24.5363C21.3108 17.1071 21.0603 20.6416 21.0603 21.7249H15.3477C15.3477 15.6425 19.1262 11.3945 24.5363 11.3945L26.7583 11.3946C26.7583 11.3946 26.945 11.3963 27.038 11.3989C30.7319 11.5068 33.849 13.8622 34.9799 17.3994C36.1252 20.9822 34.9351 24.7584 31.9481 27.0198L24.529 32.6367H35.3986V38.3493H35.3985Z" fill="#F8FFFB"/>
</g>
<g id="Group_4">
<g id="Group_5">
<path id="Vector_4" d="M31.9484 27.0193L25.379 31.9933V24.8279L28.5002 22.465C30.0702 21.2763 29.692 19.6186 29.5393 19.139C29.3915 18.6761 28.7621 17.1642 26.8721 17.1091C26.8297 17.1081 26.7559 17.1071 26.7263 17.1071H25.3789V11.3945H26.7588C26.7588 11.3945 26.9449 11.3965 27.0385 11.3984C30.7319 11.5067 33.8492 13.8617 34.98 17.3996C36.1255 20.9817 34.9358 24.758 31.9484 27.0193Z" fill="#D8D8D8"/>
</g>
<path id="Vector_5" d="M25.3789 32.6367H35.3986V38.3493H25.3789V32.6367Z" fill="#D8D8D8"/>
</g>
</g>
</g>
<defs>
<clipPath id="clip0_116_24855">
<rect width="50" height="50" fill="white"/>
</clipPath>
</defs>
</svg>
