<svg width="50" height="50" viewBox="0 0 50 50" fill="none" xmlns="http://www.w3.org/2000/svg">
<g id="030-3" clip-path="url(#clip0_116_24870)">
<g id="Group">
<g id="Group_2">
<g id="Group_3">
<path id="Vector" d="M25 50C38.8071 50 50 38.8071 50 25C50 11.1929 38.8071 0 25 0C11.1929 0 0 11.1929 0 25C0 38.8071 11.1929 50 25 50Z" fill="#07E5CA"/>
</g>
</g>
<path id="Vector_2" d="M25.2108 33.4371L21.9441 30.5397L18.3864 35.4594L31.9485 49.0202C40.3553 46.5926 46.9399 39.8719 49.1757 31.3855L31.9346 14.1445L16.1582 18.4874L23.0847 25.3989L22.7307 26.9746L28.1715 32.2363C28.1715 32.2362 26.302 33.6389 25.2108 33.4371Z" fill="#00B59B"/>
<path id="Vector_3" d="M31.9347 14.1438C30.368 12.3979 27.7513 11.3555 24.935 11.3555C24.3643 11.3555 23.7918 11.4079 23.2336 11.5113L23.0616 11.5431C21.348 11.8597 19.7955 12.6474 18.5719 13.8208C17.373 14.9714 16.572 16.4165 16.2555 17.9998L16.1582 18.4866L21.944 18.9244L22.0617 18.6203C22.3971 17.7541 23.2055 17.105 24.1714 16.9264L24.3434 16.8946C25.4346 16.6931 26.5552 17.0611 27.2685 17.8561C28.2143 18.9097 28.1198 20.6023 27.0621 21.5524C26.5498 22.0128 24.0279 22.5443 23.1891 22.5094L22.7308 22.4897V26.9739L23.1891 26.9543C24.0335 26.9188 26.55 27.451 27.0622 27.9112C28.1198 28.8613 28.2143 30.554 27.2684 31.6077C26.5552 32.4025 25.4345 32.7707 24.3433 32.569L24.1715 32.5373C23.2055 32.3587 22.3971 31.7096 22.0617 30.8434L21.944 30.5393L16.1582 30.977L16.2555 31.4639C16.5719 33.0472 17.3729 34.4923 18.572 35.643C19.7954 36.8164 21.348 37.604 23.0616 37.9206L23.2334 37.9523C23.7918 38.0558 24.3643 38.1082 24.935 38.1082C27.7513 38.1082 30.368 37.0658 31.9346 35.3199C34.5744 32.3783 34.45 27.805 31.7093 24.7318C34.45 21.6587 34.5745 17.0854 31.9347 14.1438Z" fill="#F8FFFB"/>
<path id="Vector_4" d="M31.709 24.7324C34.4502 27.8057 34.5742 32.3789 31.9346 35.3213C30.3799 37.0527 27.792 38.0928 25 38.1084V32.623C25.8672 32.6064 26.6992 32.2441 27.2686 31.6084C28.2139 30.5547 28.1201 28.8623 27.0625 27.9121C26.7793 27.6582 25.8857 27.3818 25 27.1914V22.2734C25.8857 22.083 26.7793 21.8076 27.0625 21.5537C28.1201 20.6035 28.2139 18.9111 27.2686 17.8574C26.6992 17.2217 25.8672 16.8594 25 16.8428V11.3574C27.792 11.373 30.3799 12.4121 31.9346 14.1445C34.5742 17.0859 34.4502 21.6592 31.709 24.7324Z" fill="#D8D8D8"/>
</g>
</g>
<defs>
<clipPath id="clip0_116_24870">
<rect width="50" height="50" fill="white"/>
</clipPath>
</defs>
</svg>
