<svg width="25" height="24" viewBox="0 0 25 24" fill="none" xmlns="http://www.w3.org/2000/svg">
<g id="google">
<path id="vector" d="M23.001 12.2326C23.001 11.3693 22.9296 10.7393 22.7748 10.0859H12.7153V13.9826H18.62C18.501 14.9509 17.8582 16.4093 16.4296 17.3892L16.4096 17.5197L19.5902 19.9344L19.8106 19.9559C21.8343 18.1242 23.001 15.4292 23.001 12.2326Z" fill="#4285F4"/>
<path id="vector_2" d="M12.7145 22.4996C15.6073 22.4996 18.0358 21.5662 19.8097 19.9562L16.4287 17.3895C15.524 18.0078 14.3097 18.4395 12.7145 18.4395C9.88118 18.4395 7.47645 16.6079 6.61922 14.0762L6.49358 14.0866L3.18632 16.595L3.14307 16.7128C4.90495 20.1428 8.52399 22.4996 12.7145 22.4996Z" fill="#34A853"/>
<path id="vector_3" d="M6.61997 14.0775C6.39379 13.4241 6.26289 12.7241 6.26289 12.0008C6.26289 11.2774 6.39379 10.5774 6.60807 9.9241L6.60208 9.78496L3.25337 7.23633L3.14381 7.2874C2.41765 8.71075 2.00098 10.3091 2.00098 12.0008C2.00098 13.6924 2.41765 15.2907 3.14381 16.7141L6.61997 14.0775Z" fill="#FBBC05"/>
<path id="vector_4" d="M12.7145 5.55997C14.7264 5.55997 16.0835 6.41163 16.8574 7.12335L19.8812 4.23C18.0241 2.53834 15.6074 1.5 12.7145 1.5C8.52402 1.5 4.90496 3.85665 3.14307 7.28662L6.60734 9.92332C7.47647 7.39166 9.88122 5.55997 12.7145 5.55997Z" fill="#EB4335"/>
</g>
</svg>
