<svg width="206" height="34" viewBox="0 0 206 34" fill="none" xmlns="http://www.w3.org/2000/svg">
<g id="Frame 1171275720">
<g id="Group">
<path id="Vector" d="M74.6783 13.7466L70.7723 6.4082H68.4121V18.2408H70.7269L70.7693 11.0347L73.7539 16.7207H75.3853L78.5681 11.0277L78.611 18.2408H80.9898V6.4082H78.614L74.6783 13.7466Z" fill="white"/>
<path id="Vector_2" d="M87.3896 9.91282L88.6726 12.0388L92.0854 6.4082H89.3938L87.3896 9.91282Z" fill="white"/>
<path id="Vector_3" d="M81.6797 6.4082L85.6159 13.499L85.6325 18.2408H88.0124V12.9911L84.3975 6.4082H81.6797Z" fill="white"/>
<path id="Vector_4" d="M104.196 14.1139C103.971 14.8347 103.592 15.3627 103.039 15.7276C102.483 16.0945 101.83 16.2807 101.099 16.2807C100.547 16.2807 100.05 16.165 99.62 15.936C99.1812 15.7024 98.803 15.3919 98.4958 15.0124C98.1852 14.6283 97.9421 14.1834 97.7742 13.6896C97.6052 13.1939 97.5195 12.681 97.5195 12.1646C97.5195 11.6482 97.6067 11.1297 97.7787 10.6732C97.9502 10.2187 98.1927 9.81558 98.5004 9.47433C98.804 9.13761 99.1792 8.86883 99.6149 8.67556C100.051 8.48228 100.54 8.38414 101.067 8.38414C101.84 8.38414 102.517 8.5754 103.078 8.95188C103.636 9.32635 104.018 9.88453 104.243 10.6576L104.313 10.8967H106.683L106.623 10.5132C106.509 9.78739 106.274 9.14616 105.924 8.60761C105.575 8.07258 105.144 7.62412 104.64 7.27532C104.14 6.92954 103.563 6.66832 102.925 6.4992C102.296 6.3326 101.622 6.24805 100.924 6.24805C100.068 6.24805 99.2785 6.40559 98.576 6.71664C97.8745 7.02719 97.2633 7.46004 96.7595 8.00262C96.2562 8.54419 95.8633 9.19297 95.5925 9.93034C95.3237 10.6627 95.1875 11.468 95.1875 12.3246C95.1875 13.2356 95.3297 14.0742 95.6096 14.8176C95.8915 15.567 96.297 16.2143 96.8134 16.7413C97.3304 17.2687 97.9688 17.6825 98.7102 17.9709C99.4455 18.2568 100.277 18.4012 101.18 18.4012C101.85 18.4012 102.489 18.3131 103.078 18.1395C103.673 17.9638 104.215 17.6991 104.687 17.3523C105.161 17.0045 105.569 16.5686 105.9 16.0567C106.232 15.5439 106.468 14.9454 106.604 14.279L106.685 13.8809H104.269L104.197 14.1144L104.196 14.1139Z" fill="url(#paint0_linear_559_3271)"/>
<path id="Vector_5" d="M116.22 12.2452C116.577 11.6005 116.758 10.9059 116.758 10.1806C116.758 9.54187 116.658 8.97916 116.46 8.50805C116.258 8.0294 115.968 7.62875 115.597 7.31821C115.233 7.01319 114.791 6.78167 114.284 6.63017C113.79 6.48269 113.237 6.4082 112.642 6.4082H107.82V8.54429H112.402C112.675 8.54429 112.951 8.57399 113.221 8.63237C113.473 8.68724 113.7 8.77985 113.895 8.90618C114.079 9.02597 114.223 9.18703 114.336 9.39943C114.449 9.61133 114.506 9.89017 114.506 10.2279C114.506 10.5656 114.45 10.8409 114.339 11.0654C114.227 11.2939 114.078 11.4862 113.896 11.6362C113.713 11.7877 113.495 11.9009 113.246 11.9729C112.985 12.0489 112.706 12.0877 112.418 12.0877H107.82V18.2402H110.217V14.1281H112.633L114.781 18.2402H117.457L114.776 13.6917C115.389 13.3545 115.875 12.8678 116.22 12.2447L116.22 12.2452Z" fill="url(#paint1_linear_559_3271)"/>
<path id="Vector_6" d="M117.031 6.4082L120.967 13.499L120.984 18.2408H123.364V12.9911L119.75 6.4082H117.031Z" fill="url(#paint2_linear_559_3271)"/>
<path id="Vector_7" d="M122.742 9.91282L124.025 12.0388L127.438 6.4082H124.746L122.742 9.91282Z" fill="url(#paint3_linear_559_3271)"/>
<path id="Vector_8" d="M135.853 7.30009C135.482 6.99407 135.025 6.76556 134.495 6.6201C133.982 6.47967 133.404 6.4082 132.78 6.4082H128.166V8.54429H132.395C132.701 8.54429 132.996 8.57399 133.271 8.63288C133.524 8.68724 133.747 8.78186 133.933 8.91423C134.113 9.04258 134.251 9.21019 134.356 9.42762C134.461 9.64807 134.515 9.94403 134.515 10.3079C134.515 10.6517 134.461 10.9406 134.355 11.1666C134.248 11.3931 134.106 11.5738 133.921 11.7187C133.733 11.8662 133.511 11.9754 133.261 12.0434C132.997 12.1153 132.711 12.1516 132.411 12.1516H128.166V18.2402H130.563V14.2882H132.78C134.044 14.2882 135.076 13.9424 135.846 13.2604C136.628 12.5683 137.024 11.5531 137.024 10.244C137.024 9.57459 136.925 8.99124 136.727 8.51007C136.525 8.01832 136.231 7.61114 135.853 7.30009Z" fill="url(#paint4_linear_559_3271)"/>
<path id="Vector_9" d="M143.084 10.0723H140.703V18.2411H143.084V10.0723Z" fill="url(#paint5_linear_559_3271)"/>
<path id="Vector_10" d="M155.814 7.96195C155.275 7.45813 154.624 7.06856 153.879 6.80331C153.14 6.54108 152.315 6.4082 151.426 6.4082H137.241V8.75267H151.426C151.998 8.75267 152.522 8.82817 152.984 8.97665C153.432 9.1211 153.819 9.34155 154.134 9.63247C154.449 9.92289 154.696 10.2908 154.869 10.7267C155.045 11.1711 155.134 11.7087 155.134 12.3247C155.134 12.9408 155.046 13.4496 154.874 13.9228C154.704 14.3878 154.457 14.7865 154.139 15.1076C153.822 15.4292 153.432 15.6809 152.982 15.855C152.526 16.0312 152.002 16.1208 151.426 16.1208C150.802 16.1208 150.257 16.0201 149.805 15.8208C149.357 15.624 148.982 15.3497 148.69 15.0059C148.396 14.6591 148.172 14.2338 148.026 13.7421C147.876 13.2367 147.799 12.6735 147.799 12.0685V11.3206H145.402V12.0207C145.402 12.9599 145.535 13.8302 145.796 14.6063C146.06 15.393 146.453 16.076 146.963 16.6362C147.476 17.1989 148.118 17.6393 148.872 17.9448C149.62 18.2478 150.479 18.4013 151.426 18.4013C152.373 18.4013 153.178 18.2624 153.922 17.9891C154.675 17.7123 155.324 17.3076 155.853 16.7852C156.381 16.2637 156.795 15.619 157.084 14.868C157.37 14.1241 157.514 13.2685 157.514 12.3247C157.514 11.381 157.366 10.5631 157.074 9.8333C156.779 9.09744 156.354 8.46829 155.814 7.96195H155.814Z" fill="url(#paint6_linear_559_3271)"/>
<path id="Vector_11" d="M161.161 8.49598H164.624V18.2408H167.005V8.49598H170.436V6.4082H161.161V8.49598Z" fill="white"/>
<path id="Vector_12" d="M184.682 6.40776L180.657 17.8049L178.232 13.6918C178.846 13.3546 179.331 12.8679 179.677 12.2448C180.034 11.6 180.215 10.9054 180.215 10.1796C180.215 9.54093 180.115 8.97822 179.917 8.50711C179.715 8.02795 179.425 7.62781 179.054 7.31726C178.689 7.01174 178.248 6.78072 177.741 6.62922C177.247 6.48175 176.694 6.40726 176.098 6.40726H171.276V8.54335H175.858C176.131 8.54335 176.407 8.57304 176.677 8.63143C176.93 8.68679 177.157 8.7789 177.351 8.90523C177.535 9.02452 177.679 9.18609 177.792 9.39849C177.905 9.61089 177.962 9.88973 177.962 10.227C177.962 10.5642 177.906 10.84 177.796 11.0645C177.683 11.293 177.534 11.4853 177.353 11.6352C177.17 11.7867 176.951 11.9 176.703 11.972C176.441 12.048 176.162 12.0867 175.874 12.0867H171.276V18.2393H173.673V14.1272H176.089L178.237 18.2393H183.088L186.16 9.01244L189.443 18.2393H192.167L187.614 6.40625H184.681L184.682 6.40776Z" fill="white"/>
<path id="Vector_13" d="M195.287 6.4082H192.89V18.2413H195.287V6.4082Z" fill="white"/>
<path id="Vector_14" d="M199.664 15.8807V6.4082H197.251V18.2408H205.756V15.8807H199.664Z" fill="white"/>
<g id="Group_2">
<path id="Vector_15" d="M71.5147 23.4277H68.4131V24.2572H71.5147V23.4277Z" fill="white"/>
<path id="Vector_16" d="M68.4131 27.692H69.2735V25.9767H71.3114V25.2051H68.4131V27.692Z" fill="white"/>
<path id="Vector_17" d="M74.7765 23.4277H73.9277V27.6934H74.7765V23.4277Z" fill="white"/>
<path id="Vector_18" d="M77.5391 27.6928H78.3646V25.6004L77.5391 24.4121V27.6928Z" fill="white"/>
<path id="Vector_19" d="M80.3457 26.2866L78.3648 23.4277H77.4893L80.3548 27.6934H81.1693V23.4277H80.3619L80.3457 26.2866Z" fill="white"/>
<path id="Vector_20" d="M86.963 24.0473C86.8137 23.8545 86.6206 23.7015 86.3886 23.5918C86.1576 23.4831 85.8802 23.4277 85.5635 23.4277H83.8271V24.2572H85.3023C85.7305 24.2572 86.0426 24.3659 86.2287 24.5808C86.4188 24.8003 86.5152 25.13 86.5152 25.5603C86.5152 25.9906 86.4199 26.3188 86.2317 26.5367C86.0477 26.7496 85.737 26.8574 85.3083 26.8574H83.8271V27.6929H85.5635C85.8762 27.6929 86.1521 27.6375 86.383 27.5288C86.614 27.4196 86.8082 27.2666 86.96 27.0738C87.1098 26.883 87.2217 26.6545 87.2933 26.3943C87.3634 26.1386 87.3987 25.8578 87.3987 25.5598C87.3987 25.2618 87.3634 24.981 87.2933 24.7253C87.2217 24.4651 87.1108 24.2366 86.9635 24.0463L86.963 24.0473Z" fill="white"/>
<path id="Vector_21" d="M95.2219 25.0917L94.3015 23.4277H93.3408L94.764 26.0289V27.6934H95.6067V25.9896L97.0748 23.4277H96.1206L95.2219 25.0917Z" fill="white"/>
<path id="Vector_22" d="M102.661 23.9515C102.47 23.7637 102.236 23.6178 101.965 23.5181C101.696 23.4195 101.393 23.3691 101.064 23.3691C100.736 23.3691 100.445 23.4215 100.179 23.5242C99.9125 23.6278 99.68 23.7773 99.4879 23.9691C99.2957 24.1609 99.1459 24.3939 99.042 24.6622C98.9387 24.9289 98.8867 25.2309 98.8867 25.5596C98.8867 25.8883 98.9402 26.1862 99.0451 26.4545C99.151 26.7243 99.3008 26.9583 99.4904 27.1496C99.6805 27.3413 99.913 27.4913 100.182 27.595C100.45 27.6977 100.746 27.75 101.064 27.75C101.382 27.75 101.684 27.6987 101.953 27.598C102.224 27.4964 102.459 27.3479 102.652 27.1556C102.844 26.9644 102.995 26.7303 103.101 26.46C103.206 26.1913 103.259 25.8883 103.259 25.5591C103.259 25.2299 103.207 24.9103 103.104 24.6415C103 24.3713 102.851 24.1387 102.66 23.9505L102.661 23.9515ZM102.416 25.5596C102.416 25.777 102.385 25.9738 102.322 26.1444C102.26 26.3121 102.17 26.4555 102.054 26.5708C101.938 26.6865 101.796 26.7776 101.631 26.841C101.299 26.9694 100.83 26.9704 100.502 26.8385C100.34 26.7736 100.202 26.681 100.092 26.5642C99.9806 26.4469 99.8938 26.302 99.8338 26.1334C99.7728 25.9633 99.7415 25.77 99.7415 25.5596C99.7415 25.3492 99.7718 25.1554 99.8313 24.9848C99.8898 24.8172 99.9766 24.6712 100.089 24.5519C100.201 24.4332 100.34 24.3395 100.503 24.2746C100.666 24.2087 100.856 24.1755 101.065 24.1755C101.274 24.1755 101.465 24.2082 101.632 24.2721C101.796 24.3355 101.938 24.4271 102.054 24.5449C102.17 24.6622 102.261 24.8081 102.323 24.9772C102.386 25.1499 102.417 25.3457 102.417 25.5591L102.416 25.5596Z" fill="white"/>
<path id="Vector_23" d="M108.413 26.0229C108.413 26.1734 108.39 26.3068 108.344 26.418C108.298 26.5272 108.234 26.6188 108.152 26.6903C108.069 26.7633 107.97 26.8192 107.856 26.8569C107.741 26.8952 107.612 26.9148 107.473 26.9148C107.19 26.9148 106.968 26.8403 106.812 26.6928C106.658 26.5474 106.58 26.3219 106.58 26.0229V23.4268H105.72V26.1447C105.72 26.4069 105.765 26.6405 105.854 26.8388C105.944 27.0386 106.071 27.2087 106.233 27.3446C106.392 27.479 106.582 27.5817 106.796 27.6491C107.007 27.7161 107.237 27.7498 107.48 27.7498C107.723 27.7498 107.957 27.7171 108.168 27.6522C108.383 27.5867 108.572 27.4861 108.732 27.3532C108.893 27.2188 109.021 27.0487 109.111 26.8463C109.2 26.6455 109.245 26.4095 109.245 26.1437V23.4258H108.413V26.0219V26.0229Z" fill="white"/>
<path id="Vector_24" d="M114.925 25.5271C115.054 25.2951 115.119 25.0454 115.119 24.7842C115.119 24.5542 115.083 24.3518 115.012 24.1822C114.939 24.0101 114.835 23.8666 114.702 23.7549C114.571 23.6452 114.412 23.5621 114.23 23.5078C114.052 23.4549 113.853 23.4277 113.638 23.4277H111.901V24.1822H113.55C113.65 24.1822 113.751 24.1928 113.849 24.2144C113.942 24.2346 114.025 24.2688 114.097 24.3151C114.164 24.3594 114.218 24.4188 114.26 24.4973C114.301 24.5753 114.322 24.678 114.322 24.8018C114.322 24.9256 114.301 25.0268 114.261 25.1093C114.22 25.1934 114.165 25.2638 114.098 25.3192C114.031 25.3751 113.95 25.4169 113.859 25.443C113.763 25.4707 113.661 25.4848 113.557 25.4848H111.901V27.6934H112.75V26.204H113.64L114.418 27.6934H115.365L114.397 26.052C114.622 25.9307 114.799 25.7541 114.925 25.5271Z" fill="white"/>
<path id="Vector_25" d="M125.655 26.5247L124.711 23.4277H123.862L125.197 27.6934H126.065L127.596 23.4277H126.643L125.655 26.5247Z" fill="white"/>
<path id="Vector_26" d="M123.018 26.4552L122.003 23.4277H121.047L122.541 27.6934H123.415L124.095 25.5598L123.712 24.4062L123.018 26.4552Z" fill="white"/>
<path id="Vector_27" d="M130.39 23.4277L128.884 27.6934H129.8L130.918 24.3322L132.114 27.6934H133.08L131.439 23.4277H130.39Z" fill="white"/>
<path id="Vector_28" d="M134.635 23.4277L136.053 25.9831L136.059 27.6934H136.902V25.8044L135.597 23.4277H134.635Z" fill="white"/>
<path id="Vector_29" d="M136.697 24.687L137.151 25.4385L138.37 23.4277H137.418L136.697 24.687Z" fill="white"/>
<path id="Vector_30" d="M147.43 25.7229C147.312 25.6383 147.178 25.5684 147.032 25.5145C146.99 25.4994 146.948 25.4848 146.905 25.4717C147.036 25.4043 147.148 25.3192 147.239 25.217C147.399 25.0384 147.479 24.8073 147.479 24.5295C147.479 24.3121 147.441 24.1279 147.365 23.9829C147.288 23.8364 147.18 23.7197 147.042 23.6356C146.911 23.5551 146.755 23.4992 146.579 23.47C146.411 23.4423 146.227 23.4277 146.032 23.4277H144.464V24.153H145.945C146.045 24.153 146.144 24.1586 146.24 24.1696C146.328 24.1797 146.407 24.2018 146.474 24.2346C146.535 24.2643 146.583 24.308 146.62 24.3674C146.657 24.4268 146.676 24.5124 146.676 24.6216C146.676 24.7404 146.654 24.832 146.61 24.8934C146.562 24.9593 146.505 25.0072 146.435 25.0399C146.36 25.0751 146.276 25.0983 146.188 25.1083C146.092 25.1194 146.001 25.1249 145.916 25.1249H144.464V25.9026H145.992C146.086 25.9026 146.192 25.9071 146.308 25.9167C146.417 25.9257 146.525 25.9494 146.622 25.9861C146.715 26.0259 146.796 26.0848 146.864 26.1608C146.925 26.2292 146.955 26.3243 146.955 26.4522C146.955 26.58 146.926 26.6832 146.869 26.7446C146.803 26.8151 146.724 26.8689 146.636 26.9032C146.587 26.9198 146.537 26.9308 146.489 26.9359C146.432 26.9419 146.374 26.949 146.321 26.956C146.269 26.9595 146.218 26.9615 146.166 26.9615H144.465V27.6929H146.196C146.406 27.6929 146.609 27.6778 146.799 27.6481C146.998 27.6174 147.175 27.557 147.328 27.4694C147.485 27.3788 147.612 27.2535 147.705 27.0964C147.798 26.9389 147.845 26.7356 147.845 26.4924C147.845 26.3223 147.806 26.1708 147.728 26.041C147.653 25.9167 147.553 25.8094 147.431 25.7219L147.43 25.7229Z" fill="white"/>
<path id="Vector_31" d="M151.319 23.4277L149.812 27.6934H150.728L151.847 24.3322L153.043 27.6934H154.008L152.367 23.4277H151.319Z" fill="white"/>
<path id="Vector_32" d="M159.21 26.2099C159.129 26.4731 158.99 26.6659 158.788 26.7993C158.584 26.9332 158.346 27.0011 158.08 27.0011C157.878 27.0011 157.697 26.9588 157.539 26.8748C157.38 26.7897 157.241 26.6765 157.129 26.538C157.016 26.3981 156.928 26.2361 156.867 26.0564C156.805 25.8762 156.774 25.6894 156.774 25.5012C156.774 25.313 156.806 25.1242 156.869 24.9581C156.931 24.7925 157.019 24.6456 157.131 24.5207C157.242 24.3979 157.379 24.2998 157.538 24.2293C157.697 24.1588 157.875 24.1231 158.067 24.1231C158.349 24.1231 158.596 24.1931 158.801 24.3305C159.005 24.4674 159.144 24.6712 159.226 24.9531L159.25 25.0331H160.09L160.07 24.9053C160.029 24.6435 159.944 24.4125 159.818 24.2187C159.692 24.026 159.537 23.8649 159.355 23.7391C159.175 23.6143 158.967 23.5206 158.737 23.4597C158.51 23.3998 158.268 23.3691 158.015 23.3691C157.706 23.3691 157.422 23.426 157.169 23.5378C156.916 23.65 156.695 23.8055 156.514 24.0008C156.333 24.1956 156.191 24.4296 156.094 24.6959C155.997 24.9596 155.947 25.2506 155.947 25.5596C155.947 25.8883 155.999 26.1913 156.1 26.459C156.201 26.7293 156.347 26.9623 156.533 27.1521C156.72 27.3423 156.95 27.4913 157.217 27.595C157.482 27.6982 157.781 27.75 158.107 27.75C158.348 27.75 158.579 27.7183 158.792 27.6559C159.006 27.593 159.201 27.4974 159.372 27.3725C159.543 27.2472 159.689 27.0902 159.808 26.906C159.927 26.7213 160.013 26.5058 160.062 26.2657L160.089 26.1329H159.233L159.209 26.2109L159.21 26.2099Z" fill="white"/>
<path id="Vector_33" d="M164.545 25.3293L166.42 23.4277H165.31L163.804 25.1179L163.797 25.7148L165.394 27.6934H166.501L164.545 25.3293Z" fill="white"/>
<path id="Vector_34" d="M163.404 23.4277H162.556V27.6934H163.404V23.4277Z" fill="white"/>
</g>
</g>
<g id="Group_3">
<path id="Vector_35" d="M34.0228 22.0682L33.7863 23.2349L33.404 25.1415L32.931 25.827L31.5391 27.8378C32.4307 28.0512 33.3768 28.1554 34.3728 28.1554H35.678L36.1828 25.8265L36.7376 23.2525L36.7966 22.9893L33.3445 20.8965L34.0223 22.0677L34.0228 22.0682Z" fill="url(#paint7_linear_559_3271)"/>
<path id="Vector_36" d="M23.7666 9.36266V5.85352H18.504L12.2772 15.7538L6.03216 5.85402H0.783203V28.1561H6.03216V15.1961L11.9725 24.6656H12.5636L18.504 15.1961V28.1561H23.7666V24.6379C23.0116 23.594 22.4337 22.4636 22.0383 21.2561C21.6061 19.949 21.3832 18.5191 21.3832 17.0071C21.3832 15.4951 21.6015 14.0566 22.0383 12.7399C22.4296 11.5325 23.0071 10.402 23.7666 9.36266Z" fill="white"/>
<path id="Vector_37" d="M37.489 10.7422L37.4164 10.4654H38.7901L38.8355 10.0748C38.2399 10.2474 37.7669 9.8206 37.7669 9.8206C38.017 9.62984 37.9898 9.17585 37.9308 8.40426C37.9126 8.15914 37.8945 7.88232 37.8763 7.57378C37.8309 6.75236 38.0947 6.19821 38.5133 5.83984H34.2876C31.1537 5.85796 28.5338 6.92953 26.4096 9.05354C25.168 10.2972 24.2854 11.7136 23.767 13.3071C23.3892 14.4511 23.2031 15.6813 23.2031 17.0065C23.2031 18.3317 23.3897 19.5533 23.767 20.6923C24.2854 22.2813 25.168 23.6976 26.4096 24.9413C27.1827 25.7129 28.0199 26.3441 28.9246 26.8343L29.4158 25.8267L30.2893 24.0384L30.3347 21.8867L30.3529 20.87C30.3529 20.87 32.177 20.7749 32.5588 20.4296C30.7165 20.4522 28.6336 20.5428 28.7789 18.6503C28.9065 17.0025 31.6127 12.0775 33.9366 10.8016H33.9411C34.0596 10.7336 34.1731 10.6788 34.2866 10.638C34.514 10.5474 34.7324 10.5016 34.9462 10.4971C35.7103 10.488 36.2655 10.5922 36.67 10.7422C36.6836 10.7467 36.6972 10.7512 36.7063 10.7558C37.4613 11.0462 37.6706 11.4911 37.7114 11.6094L37.493 10.7558L37.4885 10.7422H37.489Z" fill="url(#paint8_linear_559_3271)"/>
<path id="Vector_38" d="M42.7476 22.1867L41.5121 28.1561H37.8628L38.6536 25.8262L39.5266 23.2527L40.1822 21.3285L37.8164 19.1446L40.1953 16.1806L40.5594 15.7266L40.1953 16.9884V19.4124L41.4964 20.8287L42.7476 22.1867Z" fill="white"/>
<path id="Vector_39" d="M51.3665 5.83984V10.7427H45.4574V28.156H42.2267L44.4361 17.4897L43.7503 17.3483L43.0931 20.5197L41.6094 18.374L42.4703 13.1118L41.4965 12.4046L40.1953 11.4604V11.1418C40.5504 11.3517 40.8958 11.4735 41.1283 11.4368C41.2503 11.4146 41.3729 11.3371 41.4965 11.2153C41.6185 11.097 41.7421 10.9334 41.846 10.7563C42.1153 10.3118 42.2968 9.76725 42.256 9.48136L42.5202 9.43556L42.3019 7.31206C42.3019 7.31206 43.0563 7.03422 43.134 6.14083L42.6887 6.20374L42.665 5.84035H51.3665V5.83984Z" fill="white"/>
</g>
<path id="Vector_40" d="M59.2704 0.783203H58.3691V33.2156H59.2704V0.783203Z" fill="#012D60"/>
</g>
<defs>
<linearGradient id="paint0_linear_559_3271" x1="92.4374" y1="12.3241" x2="157.656" y2="12.3241" gradientUnits="userSpaceOnUse">
<stop stop-color="#786DFF"/>
<stop offset="1" stop-color="#41D7FD"/>
</linearGradient>
<linearGradient id="paint1_linear_559_3271" x1="92.4375" y1="12.3242" x2="157.656" y2="12.3242" gradientUnits="userSpaceOnUse">
<stop stop-color="#786DFF"/>
<stop offset="1" stop-color="#41D7FD"/>
</linearGradient>
<linearGradient id="paint2_linear_559_3271" x1="92.4376" y1="12.3242" x2="157.656" y2="12.3242" gradientUnits="userSpaceOnUse">
<stop stop-color="#786DFF"/>
<stop offset="1" stop-color="#41D7FD"/>
</linearGradient>
<linearGradient id="paint3_linear_559_3271" x1="92.4381" y1="9.22327" x2="157.657" y2="9.22327" gradientUnits="userSpaceOnUse">
<stop stop-color="#786DFF"/>
<stop offset="1" stop-color="#41D7FD"/>
</linearGradient>
<linearGradient id="paint4_linear_559_3271" x1="92.4375" y1="12.3242" x2="157.656" y2="12.3242" gradientUnits="userSpaceOnUse">
<stop stop-color="#786DFF"/>
<stop offset="1" stop-color="#41D7FD"/>
</linearGradient>
<linearGradient id="paint5_linear_559_3271" x1="0.783213" y1="14.1562" x2="157.656" y2="14.1562" gradientUnits="userSpaceOnUse">
<stop stop-color="#786DFF"/>
<stop offset="1" stop-color="#41D7FD"/>
</linearGradient>
<linearGradient id="paint6_linear_559_3271" x1="92.4384" y1="12.4048" x2="157.657" y2="12.4048" gradientUnits="userSpaceOnUse">
<stop stop-color="#786DFF"/>
<stop offset="1" stop-color="#41D7FD"/>
</linearGradient>
<linearGradient id="paint7_linear_559_3271" x1="22.1693" y1="24.4741" x2="38.8068" y2="24.5484" gradientUnits="userSpaceOnUse">
<stop stop-color="#786DFF"/>
<stop offset="1" stop-color="#41D7FD"/>
</linearGradient>
<linearGradient id="paint8_linear_559_3271" x1="22.2061" y1="16.2863" x2="38.8436" y2="16.36" gradientUnits="userSpaceOnUse">
<stop stop-color="#786DFF"/>
<stop offset="1" stop-color="#41D7FD"/>
</linearGradient>
</defs>
</svg>
