<svg width="102" height="46" viewBox="0 0 102 46" fill="none" xmlns="http://www.w3.org/2000/svg">
<g id="Frame 1171275721">
<path id="Vector" d="M66.988 33.133L66.5162 35.4645L65.7541 39.2744L64.811 40.6441L62.0356 44.6623C63.8135 45.0887 65.7001 45.2974 67.6866 45.2974H70.2896L71.2967 40.6441L72.4031 35.5008L72.5211 34.9745L65.6371 30.793L66.9885 33.133H66.988Z" fill="url(#paint0_linear_549_2166)"/>
<path id="Vector_2" d="M46.5346 7.74248V0.730469H36.0402L23.6232 20.5143L11.1699 0.730469H0.702637V45.2959H11.1699V19.3983L23.0158 38.3201H24.1948L36.0402 19.3983V45.2959H46.5346V38.2657C45.029 36.1792 43.8772 33.9209 43.0879 31.5078C42.2264 28.8955 41.7819 26.0378 41.7819 23.0172C41.7819 19.9967 42.2174 17.1213 43.0879 14.4904C43.8682 12.0778 45.0199 9.81891 46.5346 7.74152V7.74248Z" fill="white"/>
<path id="Vector_3" d="M73.8995 10.5017L73.7544 9.94824H76.4934L76.5842 9.16839C75.3961 9.51319 74.4525 8.66027 74.4525 8.66027C74.9515 8.27917 74.8971 7.37229 74.7791 5.83025C74.7428 5.34027 74.7066 4.78726 74.6703 4.17025C74.5795 2.5284 75.1058 1.4219 75.94 0.705078H67.5136C61.2643 0.741373 56.0398 2.88227 51.8042 7.1273C49.3277 9.61252 47.5685 12.443 46.5342 15.6269C45.7812 17.913 45.4097 20.371 45.4097 23.0195C45.4097 25.6681 45.7817 28.1084 46.5342 30.3849C47.5681 33.5597 49.3277 36.3898 51.8042 38.8755C53.3461 40.4175 55.015 41.6783 56.82 42.6582L57.7994 40.6443L59.541 37.0703L59.6317 32.7708L59.668 30.7388C59.668 30.7388 63.3053 30.5483 64.0669 29.8587C60.3933 29.904 56.2394 30.0855 56.5297 26.3028C56.7837 23.01 62.1802 13.168 66.8155 10.6192H66.8246C67.0605 10.4831 67.2873 10.3742 67.5141 10.2926C67.9678 10.1111 68.4028 10.0204 68.8292 10.0113C70.353 9.99314 71.4594 10.2018 72.2669 10.5013C72.2941 10.5103 72.3213 10.5194 72.3395 10.5285C73.8451 11.1092 74.2625 11.9979 74.3441 12.2338L73.9086 10.5285L73.8995 10.5013V10.5017Z" fill="url(#paint1_linear_549_2166)"/>
<path id="Vector_4" d="M84.3849 33.3694L81.9213 45.2974H74.6434L76.2212 40.6426L77.9617 35.5002L79.2692 31.6554L74.5518 27.2915L79.2955 21.3678L80.0213 20.4609L79.2955 22.9825V27.8259L81.8898 30.6568L84.3849 33.3694Z" fill="white"/>
<path id="Vector_5" d="M101.573 0.70408V10.5012H89.7899V45.2977H83.3482L87.7538 23.9837L86.3857 23.7005L85.0754 30.0382L82.1166 25.7502L83.8333 15.2348L81.8913 13.8222L79.2969 11.9349V11.2978C80.0046 11.7171 80.6936 11.9611 81.1578 11.8876C81.4013 11.8432 81.6453 11.6884 81.8917 11.4444C82.1357 11.2085 82.3817 10.8809 82.5889 10.527C83.1261 9.63827 83.4876 8.55086 83.4064 7.97922L83.9331 7.88753L83.4981 3.64394C83.4981 3.64394 85.0023 3.08806 85.157 1.30342L84.2688 1.42902L84.2216 0.703125H101.574L101.573 0.70408Z" fill="white"/>
</g>
<defs>
<linearGradient id="paint0_linear_549_2166" x1="44.992" y1="38.0447" x2="78.014" y2="38.0447" gradientUnits="userSpaceOnUse">
<stop stop-color="#786DFF"/>
<stop offset="1" stop-color="#41D7FD"/>
</linearGradient>
<linearGradient id="paint1_linear_549_2166" x1="44.9923" y1="21.6814" x2="78.0143" y2="21.6814" gradientUnits="userSpaceOnUse">
<stop stop-color="#786DFF"/>
<stop offset="1" stop-color="#41D7FD"/>
</linearGradient>
</defs>
</svg>
