<svg width="50" height="50" viewBox="0 0 50 50" fill="none" xmlns="http://www.w3.org/2000/svg">
<g id="028-1" clip-path="url(#clip0_116_24840)">
<g id="Group">
<g id="Group_2">
<path id="Vector" d="M25 50C38.8071 50 50 38.8071 50 25C50 11.1929 38.8071 0 25 0C11.1929 0 0 11.1929 0 25C0 38.8071 11.1929 50 25 50Z" fill="#FFB54A"/>
</g>
<path id="Vector_2" d="M33.3156 48.5804C40.9633 45.8831 46.9051 39.5723 49.09 31.6975L28.748 11.3555C28.748 11.3555 20.0847 18.6114 20.4403 20.6025L24.4148 24.529L23.0839 38.3486L33.3156 48.5804Z" fill="#F9880D"/>
<g id="Group_3">
<g id="Group_4">
<path id="Vector_3" d="M28.7481 11.3555V38.3486H23.084V18.3232L20.4404 20.6025L16.7422 16.3125L22.1504 11.6494L22.4912 11.3555H28.7481Z" fill="#F8FFFB"/>
</g>
</g>
<g id="Group_5">
<g id="Group_6">
<path id="Vector_4" d="M25 11.3555H28.749V38.3486H25V11.3555Z" fill="#D8D8D8"/>
</g>
</g>
</g>
</g>
<defs>
<clipPath id="clip0_116_24840">
<rect width="50" height="50" fill="white"/>
</clipPath>
</defs>
</svg>
